/* XPM */
static char *output_onlinepngtools__6_1676401146[] = {
/* columns rows colors chars-per-pixel */
"32 32 117 2 ",
"   c #026B2D",
".  c #19772D",
"X  c #046B31",
"o  c #0A6935",
"O  c #09663B",
"+  c #197538",
"@  c #206F37",
"#  c #267233",
"$  c #23753B",
"%  c #287D39",
"&  c #056F44",
"*  c #0E6946",
"=  c #2F8D2E",
"-  c #368B2F",
";  c #34863B",
":  c #39823C",
">  c #378B3C",
",  c #3F8C38",
"<  c #3E963D",
"1  c #4C9A3E",
"2  c #629B34",
"3  c #62953A",
"4  c #54A431",
"5  c #5DAA37",
"6  c #5DA13E",
"7  c #7DB227",
"8  c #62AA3C",
"9  c #6BAB3E",
"0  c #72A930",
"q  c #72A838",
"w  c #7BB437",
"e  c #74BB35",
"r  c #7BBA37",
"t  c #71B23A",
"y  c #7BB43E",
"u  c #7ABA3E",
"i  c #7DC630",
"p  c #76C43A",
"a  c #388343",
"s  c #368E43",
"d  c #6FA546",
"f  c #67AB48",
"g  c #6AAB4B",
"h  c #67B445",
"j  c #7DB545",
"k  c #77BC46",
"l  c #7BBA45",
"z  c #7AC243",
"x  c #76C048",
"c  c #80B72E",
"v  c #81B73C",
"b  c #82BD3D",
"n  c #92BE33",
"m  c #89C62E",
"M  c #87C233",
"N  c #8CC534",
"B  c #8BC935",
"V  c #86C33C",
"C  c #8DC73F",
"Z  c #86CF3E",
"A  c #8DC93D",
"S  c #91C937",
"D  c #93C43E",
"F  c #91CA3F",
"G  c #81B442",
"H  c #84BC43",
"J  c #8EBE46",
"K  c #81B048",
"L  c #81BF48",
"P  c #92BB60",
"I  c #85C342",
"U  c #8DC642",
"Y  c #8EC840",
"T  c #84C04B",
"R  c #8BC44A",
"E  c #8CCA49",
"W  c #91C642",
"Q  c #91CA43",
"!  c #94CB4D",
"~  c #8DC652",
"^  c #9CCD55",
"/  c #99CA5E",
"(  c #A5CC4D",
")  c #A4D14F",
"_  c #A0C956",
"`  c #ACCE53",
"'  c #B2D25C",
"]  c #A5DA61",
"[  c #AFD96D",
"{  c #BFDB64",
"}  c #AEDD7D",
"|  c #B9D97F",
" . c #C1D562",
".. c #C9DE6C",
"X. c #D1E372",
"o. c #F4F261",
"O. c #AAC988",
"+. c #ABD080",
"@. c #B2DA83",
"#. c #AFD191",
"$. c #BEDC9F",
"%. c #D3EA90",
"&. c #C5E0B5",
"*. c #C4E2B9",
"=. c #D3E8B5",
"-. c #DEE8B2",
";. c #EBF3C2",
":. c #F2F5C0",
">. c #F2F4CC",
",. c #EAF5E3",
"<. c #EDF8E5",
"1. c #EAF7E8",
"2. c #FAFAE1",
"3. c #FAF4E9",
"4. c #F7FEED",
"5. c #FCFBE9",
"6. c #FBF9F7",
/* pixels */
"C C A Q C Q C V A Y Y Y Y Y C C C W C C Y Y M Y C Y F C Y Y Y Y ",
"D Y # ; A Y A C A V C C Y Y C C Y C C Y Y e v Y C V C C A U C C ",
"Y Y G C Y Y Q Y C o U Y Y Y Y Y x Y { Y Y Y Y Y Y C C Y Z % C Y ",
"Y D Y Q Y Y C Y A U W Y Y ] C * V Y C Y A Y C W E s F C Q Y C Y ",
"Q Q r Y Y Q V Y O.Y Y A Y +.Y A C C Y Y Y o.Y Y 1 H A W U Y F Q ",
"Q A g F Y : I C Y Y h ; W Y C Q F C Y Y C C C A A Y Y ) Y k u A ",
"C C Y Y Y A Y Y C 4.Y A | Y V Q C C 2.U 5 l C C Y C A } Y j A Y ",
"C C Y Q C Q N n Q C Y W V Y Y C C C F A j Q C C Y C A b Y Q Q n ",
"U I Q A U C U c U Y ..Y Y U C C U o C Y Y C Z U V W Y Y Y C V 7 ",
"D y ^ ! a Y Y V Y U Y Y Y M Y C A Y H [ W C C K D Y Y { Y U C Y ",
"Y Y R A Y Y _ F Y Y Y Y W R Y Y Y Y Y H Y F Q A C C C Y Q Y Y Y ",
"V A -.Q A W C E U B Y Y Q Y C Y Y U Y Y Y , U C C C C N A Y C C ",
"A b I / / Y Y H i U I C Y Y Y Y - V Q Y A Y D =.Y Q Y R 9 Y Y Y ",
"A A g A A :.C Y U U A Y Y A C Y E U Y A Y C Y A ,.Q C A C A V Y ",
"C C Q Y V S Q Y 6.Y P Y Y Y Y V Y Y Y C q ,.C C C C A C C $ C C ",
"C V Q Y A V w Y Y Y V Y Y Y C Y Y Y C C Y r C C C C M C U ..Y Y ",
"U A A J Y Y Y u D F Y Y #.Y   Y V C p 8 Q 1.U W v 5.B H B Y Y Y ",
"A A z H Y Y Y A C 6.R Y Y + y Y Y C B C W C Y C C ~ S C Y Y V U ",
"Y A F A C Y Y Y V Q N Y Y Y Y Y Y Y Y H C k A Y C v C Y < . D Y ",
"Y Y W Y C Y A D Y H W C Y Y Y Y A Q +.b E U Y Y F  .C Y H Y A A ",
"V Y Y Q f 4 C C C Y C Y Q R C 6 & Y Q Y Y Y A S C Y I 8 A Y C C ",
"Q A Y Y t U C F D Y Y Y A Q A A E Y >.~ R Y D f Q ..A A Q Y Y Y ",
"C Y Y Y C Y D Q y Y Y U ! I A Y 3.Y @ = Y Y W C Y B $ A C D W B ",
"m A Q Y Y Y D Y V Y Y Y I Y Y V U U j Y Y Y C C Y & G ` Y N C C ",
"C C Q A V z N Q Y Y Y Y C Y A B Y 3 C C Y C Y C V Y ! A d <.C C ",
"A V z F Q w V C Y A Y ( C U X A C Y C C > C C Y C C J U V Q C C ",
"Y V F Y &.^ A <.Y C A E 9 D Y C U Y Y g v Y k A C U Y f 8 ;.2 C ",
"Y Y A Q %.*.Y 8 D F @.1 W C Y Y E Y C Y Y C H Y Y R C D Q H Y F ",
"U Y A Q A 0 U T Q Y W Y Y U Y Y W s C Y A A Q U > U Y Y $.! A F ",
"Y Y L t A Y Y B V W Y ' Y Y Y Y Q U C W E Y W Y R Y Y Y Q C N Y ",
"V Y U V U W R O T Y Y Y Y Y B o Y C C C Q j C Y X.V Y Y B $ U Y ",
"A Y Y Q Y Y V Y C C Y Y Y Y Y C C C C C A U C C C A V U Y Y Y Y "
};
