/* XPM */
static char *output_onlinepngtools__1_1676399670[] = {
/* columns rows colors chars-per-pixel */
"30 30 9 1 ",
"  c None",
". c black",
"X c #103611",
"o c #1C5C1E",
"O c #247526",
"+ c #267D29",
"@ c #FA0000",
"# c #36AB3A",
"$ c #42D144",
/* pixels */
"                              ",
"                              ",
"                              ",
"           O                  ",
"          O$OOO  O            ",
"          O$OOO O#O           ",
"        OOO$O##OO##OO O       ",
"        $$#####OOO#OOO#O      ",
"        $$###O#OOOOOO##O      ",
"       OO$$@$$##$$@OOOOO      ",
"       O#$$@$$o$$$###O#O      ",
"      O##$$#$$o$$$###@#oo     ",
"      OO##$#$oo$@@###@ooo     ",
"      O#o###ooo$@@##OO++o     ",
"     X##oooooOOOOO#Ooo++o     ",
"     XX@OOOo$$OO$$Xo++o@@     ",
"     XXoOOO@$$$$$$Xo++O##     ",
"      XoOOo@$$$$X$X@@oOOo     ",
"      XXooXX$X$XXX#@@XOOX     ",
"      XXXXXXXXXX#####XXXX     ",
"      .XOOXX#OX@@#X##XOX      ",
"       .OXXX####XXXXXOX.      ",
"        ..XX#XOOXXOOXX.       ",
"         ..X....XXOOX.        ",
"          ........O...        ",
"           ... .....          ",
"                              ",
"                              ",
"                              ",
"                              "
};
