/* XPM */
static char *output_onlinepngtools__4_1676400730[] = {
/* columns rows colors chars-per-pixel */
"32 32 88 1 ",
"  c None",
". c #010101",
"X c #0B0104",
"o c #0D030B",
"O c #100005",
"+ c #13000A",
"@ c #131016",
"# c #201219",
"$ c #310F22",
"% c #241E23",
"& c #3B192D",
"* c #1D2326",
"= c #222222",
"- c #23272A",
"; c #2B2329",
": c #353535",
"> c gray22",
", c #402C3F",
"< c #532D47",
"1 c #57294B",
"2 c #582C4E",
"3 c #7B3F60",
"4 c #545454",
"5 c #5C555A",
"6 c #6B4663",
"7 c #714B66",
"8 c #7A526F",
"9 c #7A5373",
"0 c #785D73",
"q c #7B6573",
"w c #84466E",
"e c #E8C543",
"r c #F8C94A",
"t c #877D85",
"y c #8E7488",
"u c #A76F98",
"i c #AD729C",
"p c #858686",
"a c #8D878B",
"s c #8A8989",
"d c #908E91",
"f c #9E9A9E",
"g c #AAA7A8",
"h c #AAA9A9",
"j c #B2B5B1",
"k c #BEBBBF",
"l c #CD80B0",
"z c #C194B3",
"x c #D995BD",
"c c #D399BC",
"v c #F080BE",
"b c #F9E7B2",
"n c #D79AC4",
"m c #E580C4",
"M c #EC86C5",
"N c #EC88C6",
"B c #ED86C9",
"V c #EC8ACA",
"C c #F286C6",
"Z c #F186C9",
"A c #F093C7",
"S c #F287D1",
"D c #EB95D2",
"F c #EE9FD4",
"G c #EAA2CE",
"H c #EAA4D3",
"J c #C8C4C6",
"K c gray80",
"L c #D2CACC",
"P c #DBD6DB",
"I c #EACBE4",
"U c #F4CEE6",
"Y c #F7CCEE",
"T c #ECD3E4",
"R c #E7DAE6",
"E c #E8D8E5",
"W c #E9DAE8",
"Q c #E5E3E4",
"! c #EAE6E7",
"~ c #EBE7EB",
"^ c #EAEAEA",
"/ c #F9F2EF",
"( c gray97",
") c #FCFEF6",
"_ c #F7F7F8",
"` c #F9F7F9",
"' c #F5FDFC",
"] c #FEFEFE",
/* pixels */
"                                ",
"                                ",
"       .....      ....%         ",
"      XBVVNZ..   XNBBNnk        ",
"     .VNNNVNVVo ;ANNNMZ2        ",
"     .VZNZNNNVD<cMNNNNC1        ",
"      +N3+D+omBicNNNBMC1        ",
"       .t`.('oVixBZNNXN1        ",
"        s])`].VN#VBB.VN<        ",
"        .]e].mNNS...SCNCo       ",
"       .p])``.VNNMBCNNNNMX      ",
"      .Ha].]].DDDDDDDFNMBM.     ",
"      .Nw$z==;=*****-%lBNV.     ",
"      .ZM&L]]]]]]]]]](JiVV.     ",
"      .Z6]]]]]]]]]]]]]]4GV.     ",
"      .Z6]]..]]]]]]]..]4GV.     ",
"      .M6]]..]]']]]]..]4GN.     ",
"      .M6]]..]'br/]]..]4HM.     ",
"       o7'IU]]])`]]]]YT5HX      ",
"        qoRR^^^^%!^~~WPy@       ",
"         j.888q:s.9990Xf        ",
"          .OvNX]]`+ZB+          ",
"         o(..o`]]]`...Q         ",
"        f]`.]]]]]]]]].`4        ",
"        f]].]]]]]]]]].]4        ",
"         X..]]]]]]]]]..         ",
"           .]]_``]]]].          ",
"           shhh>>4hhhd          ",
"            K K                 ",
"                                ",
"                                ",
"                                "
};
