/* XPM */
static char *output_onlinepngtools__5_1676400852[] = {
/* columns rows colors chars-per-pixel */
"32 32 201 2 ",
"   c None",
".  c black",
"X  c #010100",
"o  c #000001",
"O  c #010101",
"+  c #000200",
"@  c #000201",
"#  c #000301",
"$  c #020200",
"%  c #000002",
"&  c #000103",
"*  c #010103",
"=  c #010202",
"-  c #000302",
";  c #010302",
":  c #010303",
">  c #020202",
",  c #030202",
"<  c gray1",
"1  c #040201",
"2  c #030400",
"3  c #010403",
"4  c #000503",
"5  c #010304",
"6  c #000205",
"7  c #030304",
"8  c #020305",
"9  c #030305",
"0  c #070304",
"q  c #060206",
"w  c #010405",
"e  c #020504",
"r  c #020405",
"t  c #010605",
"y  c #030606",
"u  c #020607",
"i  c #040404",
"p  c #050404",
"a  c gray2",
"s  c #070405",
"d  c #070604",
"f  c #060707",
"g  c #080306",
"h  c #010408",
"j  c #020509",
"k  c #030708",
"l  c #040708",
"z  c #020808",
"x  c #02080A",
"c  c #03080B",
"v  c #040909",
"b  c #060C0B",
"n  c #0A0809",
"m  c gray4",
"M  c #0B0B0B",
"N  c #0D0D0E",
"B  c #110A0D",
"V  c #0A1011",
"C  c #101010",
"Z  c gray7",
"A  c #1F1B1C",
"S  c #1C2128",
"D  c #2C2829",
"F  c #2D2D2D",
"G  c #2D3232",
"H  c #343333",
"J  c #333733",
"K  c #343530",
"L  c #353533",
"P  c #323236",
"I  c #343636",
"U  c #373737",
"Y  c #453439",
"T  c #464646",
"R  c #4C4D4F",
"E  c #45514F",
"W  c #4E5B59",
"Q  c #4F595F",
"!  c #52575F",
"~  c #515C5F",
"^  c #535F5F",
"/  c #575F5F",
"(  c #585E5F",
")  c #50605E",
"_  c #55615F",
"`  c #515E61",
"'  c #515F61",
"]  c #535E60",
"[  c #525F62",
"{  c #545F61",
"}  c #555F61",
"|  c #555F62",
" . c #545F63",
".. c #565E62",
"X. c #535F65",
"o. c #565F66",
"O. c #5F5B69",
"+. c #456266",
"@. c #4F6462",
"#. c #516160",
"$. c #536061",
"%. c #536062",
"&. c #526162",
"*. c #526063",
"=. c #546060",
"-. c #556160",
";. c #546261",
":. c #566261",
">. c #546162",
",. c #566162",
"<. c #576162",
"1. c #566163",
"2. c #546263",
"3. c #576362",
"4. c #536562",
"5. c #506164",
"6. c #536064",
"7. c #536164",
"8. c #536066",
"9. c #536166",
"0. c #566164",
"q. c #576065",
"w. c #566165",
"e. c #556264",
"r. c #556265",
"t. c #546166",
"y. c #566166",
"u. c #566167",
"i. c #546367",
"p. c #576266",
"a. c #556565",
"s. c #566464",
"d. c #586662",
"f. c #586165",
"g. c #596364",
"h. c #586166",
"j. c #596765",
"k. c #5A6765",
"l. c #586566",
"z. c #5A6767",
"x. c #556864",
"c. c #5F6865",
"v. c #566168",
"b. c #556268",
"n. c #566369",
"m. c #56626B",
"M. c #56636B",
"N. c #526569",
"B. c #536569",
"V. c #536769",
"C. c #586468",
"Z. c #586668",
"A. c #5D6568",
"S. c #64686B",
"D. c #7C7C7C",
"F. c #B07897",
"G. c #818181",
"H. c gray54",
"J. c #8B8B8B",
"K. c #8F8E8C",
"L. c #8F8D8E",
"P. c #9C9E9E",
"I. c #A89FA6",
"U. c gray68",
"Y. c #AFACAE",
"T. c #B2B1B2",
"R. c #E1ADCC",
"E. c #C2C3C4",
"W. c #C4C6C5",
"Q. c #DFDFDF",
"!. c #F8CCE5",
"~. c #F8CEE5",
"^. c #FBCDE7",
"/. c #FACCE9",
"(. c #E8D6E7",
"). c #ECD5E4",
"_. c #F8D7E8",
"`. c #F5DBEA",
"'. c #F8DBEE",
"]. c gray88",
"[. c #E1E1E1",
"{. c #F4E2F0",
"}. c #FDE0F1",
"|. c #F9EDF2",
" X c #F8F9F6",
".X c #FEF7FB",
"XX c #F5FAF9",
"oX c #F8F8F8",
"OX c #FBFBFB",
"+X c #FFFBF8",
"@X c #FAFCF8",
"#X c #FEFDFB",
"$X c #FAFCFD",
"%X c #FDFDFD",
"&X c #FEFCFC",
"*X c #FCFEFD",
"=X c #FDFFFE",
"-X c #FEFEFE",
";X c #FEFEFF",
":X c #FEFFFF",
">X c white",
/* pixels */
"                                                                ",
"                                                                ",
"                                                                ",
"                                                                ",
"                                                                ",
"                                                                ",
"              ; C                             ;                 ",
"              R 8 z u c b           P.j z c c S.                ",
"              P ~ p.p.X.h.          S v.p.p.} ;                 ",
"              L M._ p.E ; ; ; 8 ; 3 u z } } } 8                 ",
"              L 7.%.j Q ^ ^ ` ..' } _ g.u ....;                 ",
"              H v.j.' p.} ..).!.'.` _ %.p...} ;                 ",
"              I 7.; %.<._ %.O.!.+.! <.<.p.y p.;                 ",
"                ; v.<.<.s.j.(.!.`.' 4.%._ %.8                   ",
"                  B.p.W H.L.p.U.@.J.K.G s.<.N                   ",
"                  B.p.I %X%XA d.z %X%XXXs.p.m                   ",
"                  a.3 W.Q.OX%XF %X%X[.D ; X.m                   ",
"                  p.; E.; #X%X%X%X%X; y ; ~ m                   ",
"                  A.u +XB OX%XR.*X%Xn .X; A.Z                   ",
"                    S.Y ~.%X%X1 %X%X|._.j.                      ",
"                    y g ; ; 8 ; u ; 8 3 1                       ",
"                  ^   F.u v.V OXj %.j g                         ",
"                u s.p L y g [.%X%Xq T. X                        ",
"                  V.;   3 }.%X%X%X{.Y.%X;                       ",
"                  y x.; ; %X%X%X%X%XU.;                         ",
"                        1 %XJ.G.D.%XU.                          ",
"                          y y     q T                           ",
"                                                                ",
"                                                                ",
"                                                                ",
"                                                                ",
"                                                                "
};
