/* XPM */
static char *b811d0766eff43fee3b58684fa702b546JA5acrAXiStY3Kk[] = {
/* columns rows colors chars-per-pixel */
"30 28 82 1 ",
"  c None",
". c black",
"X c #020001",
"o c #040002",
"O c #12020A",
"+ c #1A0D13",
"@ c #200412",
"# c #280316",
"$ c #2F041A",
"% c #30071B",
"& c #33051C",
"* c #3C0621",
"= c #3D0622",
"- c #450927",
"; c #530A2F",
": c #631C3E",
"> c #4A2233",
", c #4B2435",
"< c #582A3E",
"1 c #720F40",
"2 c #7C1749",
"3 c #7E1D4C",
"4 c #612D43",
"5 c #663148",
"6 c #7F3D5A",
"7 c #821149",
"8 c #84124B",
"9 c #8E1752",
"0 c #891B51",
"q c #941454",
"w c #9E155A",
"e c #A4195E",
"r c #8D3C61",
"t c #D71E7A",
"y c #9E446C",
"u c #97496A",
"i c #9F4E71",
"p c #BB457B",
"a c #DE3286",
"s c #DB3D8B",
"d c #E12081",
"f c #E92185",
"g c #ED2187",
"h c #EC2588",
"j c #E82D89",
"k c #ED318E",
"l c #EF328F",
"z c #BA5983",
"x c #C94B85",
"c c #DD418D",
"v c #C75F8C",
"b c #EB4293",
"n c #E54C96",
"m c #F34D9C",
"M c #E85298",
"N c #E95398",
"B c #C17E9A",
"V c #F358A0",
"C c #F55BA2",
"Z c #E660A2",
"A c #EF66A9",
"S c #EF6EAC",
"D c #F764A6",
"F c #FA6BAB",
"G c #E876A7",
"H c #E976A7",
"J c #F671AB",
"K c #FC79B1",
"L c #FF7DB5",
"P c #FB83B6",
"I c #FA86BA",
"U c #F997C1",
"Y c #FDA0C7",
"T c #FAAFCE",
"R c #FCB3D2",
"E c #FDC0D9",
"W c #FBC6DC",
"Q c #FBC9DD",
"! c #FDD3E2",
"~ c #F9DFE8",
"^ c #F9E6EC",
"/ c #FAF0F1",
/* pixels */
"                              ",
"                              ",
"                              ",
"                              ",
"                              ",
"                 +5<          ",
"                #3Jz<         ",
"                &sWLv<        ",
"            XXXo%cIVKx;       ",
"           6iiiy02bmbk1       ",
"          6HE!QIM92adw@       ",
"         6HE//^QPM9==%        ",
"        XuE/~SVUEFeX          ",
"        Xu!~ACFU!Feo          ",
"        XuRAhDPQQFeo          ",
"        XumffCKPPCeo          ",
"      #==raffjCDVd8O          ",
"     +rZn07tggghd7O           ",
"     4T~Ib07qqqq8O            ",
"     >BYCmj-XXXX              ",
"      ,vDkd-                  ",
"       ,pkq%                  ",
"        ,:@                   ",
"                              ",
"                              ",
"                              ",
"                              ",
"                              "
};
